<svg xmlns="http://www.w3.org/2000/svg" xmlns:xlink="http://www.w3.org/1999/xlink" width="500" zoomAndPan="magnify" viewBox="0 0 375 374.999991" height="500" preserveAspectRatio="xMidYMid meet" version="1.0"><defs><g/></defs><g fill="#ffffff" fill-opacity="1"><g transform="translate(41.156252, 214.874986)"><g><path d="M 5.453125 -54.5625 L 20.890625 -54.5625 L 20.890625 0 L 5.453125 0 Z M 5.453125 -54.5625 "/></g></g></g><g fill="#ffffff" fill-opacity="1"><g transform="translate(67.582329, 214.874986)"><g><path d="M 17.078125 -42.328125 L 0.3125 -42.328125 L 0.3125 -54.5625 L 49.1875 -54.5625 L 49.1875 -42.328125 L 32.5 -42.328125 L 32.5 0 L 17.078125 0 Z M 17.078125 -42.328125 "/></g></g></g><g fill="#ffffff" fill-opacity="1"><g transform="translate(125.859371, 204.204361)"><g><path d="M 3.515625 0 L 3.515625 -33.234375 L 15.1875 -33.234375 C 17.53125 -33.234375 19.46875 -32.859375 21 -32.109375 C 22.539062 -31.367188 23.6875 -30.359375 24.4375 -29.078125 C 25.195312 -27.796875 25.578125 -26.363281 25.578125 -24.78125 C 25.578125 -22.625 25 -20.925781 23.84375 -19.6875 C 22.695312 -18.457031 21.316406 -17.609375 19.703125 -17.140625 C 20.929688 -16.910156 22.050781 -16.414062 23.0625 -15.65625 C 24.082031 -14.90625 24.882812 -13.957031 25.46875 -12.8125 C 26.050781 -11.675781 26.34375 -10.425781 26.34375 -9.0625 C 26.34375 -7.382812 25.929688 -5.859375 25.109375 -4.484375 C 24.285156 -3.109375 23.066406 -2.015625 21.453125 -1.203125 C 19.835938 -0.398438 17.875 0 15.5625 0 Z M 7.5 -18.703125 L 14.90625 -18.703125 C 17.019531 -18.703125 18.644531 -19.195312 19.78125 -20.1875 C 20.925781 -21.1875 21.5 -22.570312 21.5 -24.34375 C 21.5 -26.03125 20.9375 -27.378906 19.8125 -28.390625 C 18.695312 -29.398438 17.015625 -29.90625 14.765625 -29.90625 L 7.5 -29.90625 Z M 7.5 -3.328125 L 15.140625 -3.328125 C 17.421875 -3.328125 19.175781 -3.851562 20.40625 -4.90625 C 21.644531 -5.96875 22.265625 -7.445312 22.265625 -9.34375 C 22.265625 -11.21875 21.613281 -12.710938 20.3125 -13.828125 C 19.019531 -14.953125 17.265625 -15.515625 15.046875 -15.515625 L 7.5 -15.515625 Z M 7.5 -3.328125 "/></g></g></g><g fill="#ffffff" fill-opacity="1"><g transform="translate(154.437876, 204.204361)"><g><path d="M 11.109375 0.5625 C 9.148438 0.5625 7.519531 0.234375 6.21875 -0.421875 C 4.914062 -1.085938 3.945312 -1.972656 3.3125 -3.078125 C 2.6875 -4.191406 2.375 -5.394531 2.375 -6.6875 C 2.375 -9.09375 3.289062 -10.941406 5.125 -12.234375 C 6.957031 -13.535156 9.457031 -14.1875 12.625 -14.1875 L 18.984375 -14.1875 L 18.984375 -14.484375 C 18.984375 -16.535156 18.445312 -18.09375 17.375 -19.15625 C 16.300781 -20.21875 14.859375 -20.75 13.046875 -20.75 C 11.503906 -20.75 10.171875 -20.359375 9.046875 -19.578125 C 7.921875 -18.804688 7.21875 -17.675781 6.9375 -16.1875 L 2.84375 -16.1875 C 3 -17.894531 3.578125 -19.332031 4.578125 -20.5 C 5.578125 -21.675781 6.816406 -22.570312 8.296875 -23.1875 C 9.785156 -23.800781 11.367188 -24.109375 13.046875 -24.109375 C 16.335938 -24.109375 18.8125 -23.226562 20.46875 -21.46875 C 22.132812 -19.71875 22.96875 -17.390625 22.96875 -14.484375 L 22.96875 0 L 19.421875 0 L 19.171875 -4.21875 C 18.515625 -2.894531 17.539062 -1.765625 16.25 -0.828125 C 14.96875 0.0976562 13.253906 0.5625 11.109375 0.5625 Z M 11.71875 -2.796875 C 13.238281 -2.796875 14.546875 -3.191406 15.640625 -3.984375 C 16.734375 -4.773438 17.5625 -5.800781 18.125 -7.0625 C 18.695312 -8.332031 18.984375 -9.664062 18.984375 -11.0625 L 18.984375 -11.109375 L 12.953125 -11.109375 C 10.617188 -11.109375 8.96875 -10.703125 8 -9.890625 C 7.03125 -9.085938 6.546875 -8.085938 6.546875 -6.890625 C 6.546875 -5.648438 6.992188 -4.65625 7.890625 -3.90625 C 8.796875 -3.164062 10.070312 -2.796875 11.71875 -2.796875 Z M 11.71875 -2.796875 "/></g></g></g><g fill="#ffffff" fill-opacity="1"><g transform="translate(180.120545, 204.204361)"><g><path d="M 3.28125 0 L 3.28125 -23.546875 L 6.890625 -23.546875 L 7.125 -19.3125 C 7.882812 -20.800781 8.972656 -21.972656 10.390625 -22.828125 C 11.816406 -23.679688 13.429688 -24.109375 15.234375 -24.109375 C 18.023438 -24.109375 20.25 -23.257812 21.90625 -21.5625 C 23.570312 -19.875 24.40625 -17.273438 24.40625 -13.765625 L 24.40625 0 L 20.40625 0 L 20.40625 -13.34375 C 20.40625 -18.25 18.378906 -20.703125 14.328125 -20.703125 C 12.304688 -20.703125 10.625 -19.960938 9.28125 -18.484375 C 7.9375 -17.015625 7.265625 -14.921875 7.265625 -12.203125 L 7.265625 0 Z M 3.28125 0 "/></g></g></g><g fill="#ffffff" fill-opacity="1"><g transform="translate(207.274867, 204.204361)"><g><path d="M 12.578125 -7.40625 C 11.242188 -7.40625 10.023438 -7.578125 8.921875 -7.921875 L 6.546875 -5.703125 C 6.898438 -5.441406 7.335938 -5.222656 7.859375 -5.046875 C 8.378906 -4.878906 9.128906 -4.722656 10.109375 -4.578125 C 11.085938 -4.429688 12.460938 -4.28125 14.234375 -4.125 C 17.398438 -3.90625 19.660156 -3.175781 21.015625 -1.9375 C 22.378906 -0.707031 23.0625 0.898438 23.0625 2.890625 C 23.0625 4.253906 22.691406 5.550781 21.953125 6.78125 C 21.210938 8.019531 20.070312 9.035156 18.53125 9.828125 C 17 10.617188 15.03125 11.015625 12.625 11.015625 C 10.507812 11.015625 8.628906 10.734375 6.984375 10.171875 C 5.335938 9.617188 4.050781 8.78125 3.125 7.65625 C 2.207031 6.539062 1.75 5.128906 1.75 3.421875 C 1.75 2.535156 1.988281 1.578125 2.46875 0.546875 C 2.945312 -0.484375 3.832031 -1.457031 5.125 -2.375 C 4.425781 -2.65625 3.832031 -2.960938 3.34375 -3.296875 C 2.851562 -3.628906 2.40625 -4.003906 2 -4.421875 L 2 -5.5 L 6.03125 -9.5 C 4.164062 -11.070312 3.234375 -13.160156 3.234375 -15.765625 C 3.234375 -17.304688 3.59375 -18.710938 4.3125 -19.984375 C 5.039062 -21.253906 6.101562 -22.257812 7.5 -23 C 8.894531 -23.738281 10.585938 -24.109375 12.578125 -24.109375 C 13.941406 -24.109375 15.175781 -23.921875 16.28125 -23.546875 L 24.96875 -23.546875 L 24.96875 -20.546875 L 20.546875 -20.359375 C 21.472656 -19.035156 21.9375 -17.503906 21.9375 -15.765625 C 21.9375 -14.210938 21.5625 -12.800781 20.8125 -11.53125 C 20.070312 -10.269531 19.007812 -9.265625 17.625 -8.515625 C 16.25 -7.773438 14.566406 -7.40625 12.578125 -7.40625 Z M 12.578125 -10.6875 C 14.253906 -10.6875 15.585938 -11.117188 16.578125 -11.984375 C 17.578125 -12.859375 18.078125 -14.117188 18.078125 -15.765625 C 18.078125 -17.378906 17.578125 -18.617188 16.578125 -19.484375 C 15.585938 -20.359375 14.253906 -20.796875 12.578125 -20.796875 C 10.867188 -20.796875 9.515625 -20.359375 8.515625 -19.484375 C 7.523438 -18.617188 7.03125 -17.378906 7.03125 -15.765625 C 7.03125 -14.117188 7.523438 -12.859375 8.515625 -11.984375 C 9.515625 -11.117188 10.867188 -10.6875 12.578125 -10.6875 Z M 5.65625 3.03125 C 5.65625 4.613281 6.316406 5.789062 7.640625 6.5625 C 8.972656 7.34375 10.632812 7.734375 12.625 7.734375 C 14.582031 7.734375 16.15625 7.304688 17.34375 6.453125 C 18.53125 5.597656 19.125 4.457031 19.125 3.03125 C 19.125 2.019531 18.710938 1.140625 17.890625 0.390625 C 17.066406 -0.347656 15.550781 -0.78125 13.34375 -0.90625 C 11.601562 -1.03125 10.097656 -1.1875 8.828125 -1.375 C 7.535156 -0.675781 6.679688 0.0703125 6.265625 0.875 C 5.859375 1.6875 5.65625 2.40625 5.65625 3.03125 Z M 5.65625 3.03125 "/></g></g></g><g fill="#ffffff" fill-opacity="1"><g transform="translate(233.479741, 204.204361)"><g><path d="M 3.28125 0 L 3.28125 -23.546875 L 6.890625 -23.546875 L 7.171875 -20.125 C 7.929688 -21.394531 8.941406 -22.375 10.203125 -23.0625 C 11.472656 -23.757812 12.898438 -24.109375 14.484375 -24.109375 C 16.347656 -24.109375 17.953125 -23.726562 19.296875 -22.96875 C 20.640625 -22.207031 21.675781 -21.054688 22.40625 -19.515625 C 23.226562 -20.929688 24.359375 -22.050781 25.796875 -22.875 C 27.234375 -23.695312 28.789062 -24.109375 30.46875 -24.109375 C 33.289062 -24.109375 35.539062 -23.257812 37.21875 -21.5625 C 38.894531 -19.875 39.734375 -17.273438 39.734375 -13.765625 L 39.734375 0 L 35.796875 0 L 35.796875 -13.34375 C 35.796875 -15.78125 35.300781 -17.613281 34.3125 -18.84375 C 33.332031 -20.082031 31.925781 -20.703125 30.09375 -20.703125 C 28.195312 -20.703125 26.625 -19.960938 25.375 -18.484375 C 24.125 -17.015625 23.5 -14.921875 23.5 -12.203125 L 23.5 0 L 19.515625 0 L 19.515625 -13.34375 C 19.515625 -15.78125 19.019531 -17.613281 18.03125 -18.84375 C 17.050781 -20.082031 15.644531 -20.703125 13.8125 -20.703125 C 11.945312 -20.703125 10.390625 -19.960938 9.140625 -18.484375 C 7.890625 -17.015625 7.265625 -14.921875 7.265625 -12.203125 L 7.265625 0 Z M 3.28125 0 "/></g></g></g><g fill="#ffffff" fill-opacity="1"><g transform="translate(275.967715, 204.204361)"><g><path d="M 14 0.5625 C 11.789062 0.5625 9.796875 0.0546875 8.015625 -0.953125 C 6.242188 -1.960938 4.84375 -3.390625 3.8125 -5.234375 C 2.789062 -7.085938 2.28125 -9.265625 2.28125 -11.765625 C 2.28125 -14.265625 2.800781 -16.441406 3.84375 -18.296875 C 4.882812 -20.148438 6.300781 -21.582031 8.09375 -22.59375 C 9.882812 -23.601562 11.882812 -24.109375 14.09375 -24.109375 C 16.3125 -24.109375 18.304688 -23.601562 20.078125 -22.59375 C 21.847656 -21.582031 23.25 -20.148438 24.28125 -18.296875 C 25.3125 -16.441406 25.828125 -14.265625 25.828125 -11.765625 C 25.828125 -9.265625 25.300781 -7.085938 24.25 -5.234375 C 23.207031 -3.390625 21.789062 -1.960938 20 -0.953125 C 18.21875 0.0546875 16.21875 0.5625 14 0.5625 Z M 14 -2.84375 C 15.363281 -2.84375 16.628906 -3.175781 17.796875 -3.84375 C 18.972656 -4.507812 19.921875 -5.503906 20.640625 -6.828125 C 21.367188 -8.160156 21.734375 -9.804688 21.734375 -11.765625 C 21.734375 -13.734375 21.378906 -15.378906 20.671875 -16.703125 C 19.960938 -18.035156 19.019531 -19.035156 17.84375 -19.703125 C 16.675781 -20.367188 15.425781 -20.703125 14.09375 -20.703125 C 12.738281 -20.703125 11.472656 -20.367188 10.296875 -19.703125 C 9.128906 -19.035156 8.179688 -18.035156 7.453125 -16.703125 C 6.722656 -15.378906 6.359375 -13.734375 6.359375 -11.765625 C 6.359375 -9.804688 6.722656 -8.160156 7.453125 -6.828125 C 8.179688 -5.503906 9.125 -4.507812 10.28125 -3.84375 C 11.4375 -3.175781 12.675781 -2.84375 14 -2.84375 Z M 14 -2.84375 "/></g></g></g><g fill="#ffffff" fill-opacity="1"><g transform="translate(304.071495, 204.204361)"><g><path d="M 13.953125 0.5625 C 11.609375 0.5625 9.554688 0.0234375 7.796875 -1.046875 C 6.046875 -2.117188 4.6875 -3.585938 3.71875 -5.453125 C 2.757812 -7.328125 2.28125 -9.445312 2.28125 -11.8125 C 2.28125 -14.1875 2.769531 -16.300781 3.75 -18.15625 C 4.726562 -20.007812 6.085938 -21.460938 7.828125 -22.515625 C 9.566406 -23.578125 11.625 -24.109375 14 -24.109375 C 15.9375 -24.109375 17.644531 -23.710938 19.125 -22.921875 C 20.613281 -22.128906 21.769531 -21.023438 22.59375 -19.609375 L 22.59375 -34.171875 L 26.578125 -34.171875 L 26.578125 0 L 22.96875 0 L 22.59375 -3.890625 C 21.832031 -2.753906 20.738281 -1.726562 19.3125 -0.8125 C 17.894531 0.101562 16.109375 0.5625 13.953125 0.5625 Z M 14.390625 -2.890625 C 15.960938 -2.890625 17.359375 -3.257812 18.578125 -4 C 19.796875 -4.75 20.742188 -5.785156 21.421875 -7.109375 C 22.109375 -8.441406 22.453125 -9.992188 22.453125 -11.765625 C 22.453125 -13.546875 22.109375 -15.097656 21.421875 -16.421875 C 20.742188 -17.753906 19.796875 -18.789062 18.578125 -19.53125 C 17.359375 -20.28125 15.960938 -20.65625 14.390625 -20.65625 C 12.835938 -20.65625 11.453125 -20.28125 10.234375 -19.53125 C 9.015625 -18.789062 8.0625 -17.753906 7.375 -16.421875 C 6.695312 -15.097656 6.359375 -13.546875 6.359375 -11.765625 C 6.359375 -9.992188 6.695312 -8.441406 7.375 -7.109375 C 8.0625 -5.785156 9.015625 -4.75 10.234375 -4 C 11.453125 -3.257812 12.835938 -2.890625 14.390625 -2.890625 Z M 14.390625 -2.890625 "/></g></g></g><g fill="#ffffff" fill-opacity="1"><g transform="translate(43.692218, 256.796292)"><g><path d="M 1.90625 -26.1875 L 11.46875 -26.1875 C 14.132812 -26.1875 16.289062 -25.5 17.9375 -24.125 C 19.59375 -22.75 20.421875 -20.75 20.421875 -18.125 C 20.421875 -15.5 19.582031 -13.441406 17.90625 -11.953125 C 16.238281 -10.460938 14.09375 -9.71875 11.46875 -9.71875 L 7.875 -9.71875 L 7.875 0 L 1.90625 0 Z M 7.875 -14.484375 L 9.5625 -14.484375 C 10.894531 -14.484375 11.988281 -14.75 12.84375 -15.28125 C 13.695312 -15.820312 14.125 -16.707031 14.125 -17.9375 C 14.125 -19.1875 13.695312 -20.082031 12.84375 -20.625 C 11.988281 -21.164062 10.894531 -21.4375 9.5625 -21.4375 L 7.875 -21.4375 Z M 7.875 -14.484375 "/></g></g></g><g fill="#ffffff" fill-opacity="1"><g transform="translate(64.835108, 256.796292)"><g><path d="M 1.90625 0 L 1.90625 -27.3125 L 7.53125 -27.3125 L 7.53125 -14.578125 L 7.59375 -14.578125 C 9.050781 -16.035156 10.601562 -16.765625 12.25 -16.765625 C 13.0625 -16.765625 13.863281 -16.65625 14.65625 -16.4375 C 15.445312 -16.226562 16.207031 -15.898438 16.9375 -15.453125 C 17.664062 -15.015625 18.257812 -14.382812 18.71875 -13.5625 C 19.175781 -12.75 19.40625 -11.804688 19.40625 -10.734375 L 19.40625 0 L 13.78125 0 L 13.78125 -9.203125 C 13.78125 -10.054688 13.507812 -10.796875 12.96875 -11.421875 C 12.425781 -12.054688 11.722656 -12.375 10.859375 -12.375 C 10.015625 -12.375 9.25 -12.046875 8.5625 -11.390625 C 7.875 -10.734375 7.53125 -10.003906 7.53125 -9.203125 L 7.53125 0 Z M 1.90625 0 "/></g></g></g><g fill="#ffffff" fill-opacity="1"><g transform="translate(85.819268, 256.796292)"><g><path d="M 3.4375 -1.9375 C 1.632812 -3.539062 0.734375 -5.601562 0.734375 -8.125 C 0.734375 -10.644531 1.671875 -12.710938 3.546875 -14.328125 C 5.429688 -15.953125 7.765625 -16.765625 10.546875 -16.765625 C 13.273438 -16.765625 15.570312 -15.945312 17.4375 -14.3125 C 19.3125 -12.6875 20.25 -10.625 20.25 -8.125 C 20.25 -5.625 19.332031 -3.566406 17.5 -1.953125 C 15.675781 -0.335938 13.359375 0.46875 10.546875 0.46875 C 7.617188 0.46875 5.25 -0.332031 3.4375 -1.9375 Z M 7.796875 -10.890625 C 7.066406 -10.171875 6.703125 -9.25 6.703125 -8.125 C 6.703125 -7 7.050781 -6.082031 7.75 -5.375 C 8.445312 -4.664062 9.367188 -4.3125 10.515625 -4.3125 C 11.609375 -4.3125 12.507812 -4.671875 13.21875 -5.390625 C 13.925781 -6.117188 14.28125 -7.03125 14.28125 -8.125 C 14.28125 -9.25 13.914062 -10.171875 13.1875 -10.890625 C 12.457031 -11.609375 11.566406 -11.96875 10.515625 -11.96875 C 9.429688 -11.96875 8.523438 -11.609375 7.796875 -10.890625 Z M 7.796875 -10.890625 "/></g></g></g><g fill="#ffffff" fill-opacity="1"><g transform="translate(106.803428, 256.796292)"><g><path d="M 2.859375 -16.28125 L 2.859375 -22.359375 L 8.484375 -22.359375 L 8.484375 -16.28125 L 11.90625 -16.28125 L 11.90625 -12 L 8.484375 -12 L 8.484375 -6.828125 C 8.484375 -5.328125 8.90625 -4.578125 9.75 -4.578125 C 9.957031 -4.578125 10.175781 -4.617188 10.40625 -4.703125 C 10.644531 -4.785156 10.828125 -4.867188 10.953125 -4.953125 L 11.140625 -5.078125 L 12.546875 -0.546875 C 11.335938 0.128906 9.957031 0.46875 8.40625 0.46875 C 7.351562 0.46875 6.445312 0.285156 5.6875 -0.078125 C 4.925781 -0.453125 4.347656 -0.953125 3.953125 -1.578125 C 3.554688 -2.203125 3.273438 -2.859375 3.109375 -3.546875 C 2.941406 -4.234375 2.859375 -4.96875 2.859375 -5.75 L 2.859375 -12 L 0.515625 -12 L 0.515625 -16.28125 Z M 2.859375 -16.28125 "/></g></g></g><g fill="#ffffff" fill-opacity="1"><g transform="translate(119.343131, 256.796292)"><g><path d="M 3.4375 -1.9375 C 1.632812 -3.539062 0.734375 -5.601562 0.734375 -8.125 C 0.734375 -10.644531 1.671875 -12.710938 3.546875 -14.328125 C 5.429688 -15.953125 7.765625 -16.765625 10.546875 -16.765625 C 13.273438 -16.765625 15.570312 -15.945312 17.4375 -14.3125 C 19.3125 -12.6875 20.25 -10.625 20.25 -8.125 C 20.25 -5.625 19.332031 -3.566406 17.5 -1.953125 C 15.675781 -0.335938 13.359375 0.46875 10.546875 0.46875 C 7.617188 0.46875 5.25 -0.332031 3.4375 -1.9375 Z M 7.796875 -10.890625 C 7.066406 -10.171875 6.703125 -9.25 6.703125 -8.125 C 6.703125 -7 7.050781 -6.082031 7.75 -5.375 C 8.445312 -4.664062 9.367188 -4.3125 10.515625 -4.3125 C 11.609375 -4.3125 12.507812 -4.671875 13.21875 -5.390625 C 13.925781 -6.117188 14.28125 -7.03125 14.28125 -8.125 C 14.28125 -9.25 13.914062 -10.171875 13.1875 -10.890625 C 12.457031 -11.609375 11.566406 -11.96875 10.515625 -11.96875 C 9.429688 -11.96875 8.523438 -11.609375 7.796875 -10.890625 Z M 7.796875 -10.890625 "/></g></g></g><g fill="#ffffff" fill-opacity="1"><g transform="translate(140.327291, 256.796292)"><g/></g></g><g fill="#ffffff" fill-opacity="1"><g transform="translate(148.993969, 256.796292)"><g><path d="M 1.90625 -26.1875 L 9.5 -26.1875 C 13.132812 -26.1875 16.242188 -24.941406 18.828125 -22.453125 C 21.410156 -19.972656 22.703125 -16.859375 22.703125 -13.109375 C 22.703125 -9.347656 21.414062 -6.222656 18.84375 -3.734375 C 16.269531 -1.242188 13.15625 0 9.5 0 L 1.90625 0 Z M 7.875 -5.328125 L 8.796875 -5.328125 C 10.972656 -5.328125 12.753906 -6.0625 14.140625 -7.53125 C 15.523438 -9.007812 16.226562 -10.859375 16.25 -13.078125 C 16.25 -15.304688 15.554688 -17.160156 14.171875 -18.640625 C 12.785156 -20.117188 10.992188 -20.859375 8.796875 -20.859375 L 7.875 -20.859375 Z M 7.875 -5.328125 "/></g></g></g><g fill="#ffffff" fill-opacity="1"><g transform="translate(172.422587, 256.796292)"><g><path d="M 2.4375 -25.375 C 3.09375 -26.03125 3.875 -26.359375 4.78125 -26.359375 C 5.695312 -26.359375 6.484375 -26.03125 7.140625 -25.375 C 7.796875 -24.71875 8.125 -23.929688 8.125 -23.015625 C 8.125 -22.109375 7.796875 -21.328125 7.140625 -20.671875 C 6.484375 -20.015625 5.695312 -19.6875 4.78125 -19.6875 C 3.875 -19.6875 3.09375 -20.015625 2.4375 -20.671875 C 1.78125 -21.328125 1.453125 -22.109375 1.453125 -23.015625 C 1.453125 -23.929688 1.78125 -24.71875 2.4375 -25.375 Z M 1.90625 -16.28125 L 1.90625 0 L 7.53125 0 L 7.53125 -16.28125 Z M 1.90625 -16.28125 "/></g></g></g><g fill="#ffffff" fill-opacity="1"><g transform="translate(182.009909, 256.796292)"><g><path d="M 1.90625 0 L 1.90625 -16.28125 L 7.53125 -16.28125 L 7.53125 -13.9375 L 7.59375 -13.9375 C 7.632812 -14.019531 7.703125 -14.125 7.796875 -14.25 C 7.890625 -14.382812 8.09375 -14.609375 8.40625 -14.921875 C 8.726562 -15.242188 9.066406 -15.53125 9.421875 -15.78125 C 9.785156 -16.03125 10.253906 -16.253906 10.828125 -16.453125 C 11.398438 -16.660156 11.984375 -16.765625 12.578125 -16.765625 C 13.191406 -16.765625 13.789062 -16.675781 14.375 -16.5 C 14.96875 -16.332031 15.40625 -16.164062 15.6875 -16 L 16.125 -15.75 L 13.78125 -10.984375 C 13.082031 -11.578125 12.109375 -11.875 10.859375 -11.875 C 10.179688 -11.875 9.597656 -11.722656 9.109375 -11.421875 C 8.617188 -11.128906 8.273438 -10.769531 8.078125 -10.34375 C 7.878906 -9.925781 7.738281 -9.566406 7.65625 -9.265625 C 7.570312 -8.972656 7.53125 -8.742188 7.53125 -8.578125 L 7.53125 0 Z M 1.90625 0 "/></g></g></g><g fill="#ffffff" fill-opacity="1"><g transform="translate(197.819463, 256.796292)"><g><path d="M 18.390625 -7.359375 L 6.578125 -7.359375 C 6.578125 -6.222656 6.945312 -5.378906 7.6875 -4.828125 C 8.425781 -4.273438 9.226562 -4 10.09375 -4 C 11.007812 -4 11.726562 -4.117188 12.25 -4.359375 C 12.78125 -4.609375 13.382812 -5.09375 14.0625 -5.8125 L 18.125 -3.78125 C 16.4375 -0.945312 13.625 0.46875 9.6875 0.46875 C 7.226562 0.46875 5.117188 -0.367188 3.359375 -2.046875 C 1.609375 -3.734375 0.734375 -5.757812 0.734375 -8.125 C 0.734375 -10.5 1.609375 -12.53125 3.359375 -14.21875 C 5.117188 -15.914062 7.226562 -16.765625 9.6875 -16.765625 C 12.269531 -16.765625 14.367188 -16.015625 15.984375 -14.515625 C 17.609375 -13.023438 18.421875 -10.894531 18.421875 -8.125 C 18.421875 -7.75 18.410156 -7.492188 18.390625 -7.359375 Z M 6.734375 -10.484375 L 12.921875 -10.484375 C 12.796875 -11.328125 12.460938 -11.972656 11.921875 -12.421875 C 11.378906 -12.878906 10.6875 -13.109375 9.84375 -13.109375 C 8.914062 -13.109375 8.175781 -12.863281 7.625 -12.375 C 7.070312 -11.894531 6.773438 -11.265625 6.734375 -10.484375 Z M 6.734375 -10.484375 "/></g></g></g><g fill="#ffffff" fill-opacity="1"><g transform="translate(216.962349, 256.796292)"><g><path d="M 10.578125 -12.15625 C 9.515625 -12.15625 8.601562 -11.765625 7.84375 -10.984375 C 7.082031 -10.203125 6.703125 -9.257812 6.703125 -8.15625 C 6.703125 -7.039062 7.082031 -6.085938 7.84375 -5.296875 C 8.601562 -4.515625 9.515625 -4.125 10.578125 -4.125 C 11.078125 -4.125 11.554688 -4.1875 12.015625 -4.3125 C 12.472656 -4.445312 12.804688 -4.578125 13.015625 -4.703125 L 13.296875 -4.890625 L 15.203125 -0.984375 C 15.054688 -0.878906 14.847656 -0.742188 14.578125 -0.578125 C 14.316406 -0.421875 13.710938 -0.207031 12.765625 0.0625 C 11.828125 0.332031 10.820312 0.46875 9.75 0.46875 C 7.351562 0.46875 5.25 -0.367188 3.4375 -2.046875 C 1.632812 -3.734375 0.734375 -5.75 0.734375 -8.09375 C 0.734375 -10.46875 1.632812 -12.503906 3.4375 -14.203125 C 5.25 -15.910156 7.351562 -16.765625 9.75 -16.765625 C 10.820312 -16.765625 11.8125 -16.632812 12.71875 -16.375 C 13.632812 -16.125 14.285156 -15.875 14.671875 -15.625 L 15.203125 -15.234375 L 13.296875 -11.390625 C 12.597656 -11.898438 11.691406 -12.15625 10.578125 -12.15625 Z M 10.578125 -12.15625 "/></g></g></g><g fill="#ffffff" fill-opacity="1"><g transform="translate(232.549681, 256.796292)"><g><path d="M 2.859375 -16.28125 L 2.859375 -22.359375 L 8.484375 -22.359375 L 8.484375 -16.28125 L 11.90625 -16.28125 L 11.90625 -12 L 8.484375 -12 L 8.484375 -6.828125 C 8.484375 -5.328125 8.90625 -4.578125 9.75 -4.578125 C 9.957031 -4.578125 10.175781 -4.617188 10.40625 -4.703125 C 10.644531 -4.785156 10.828125 -4.867188 10.953125 -4.953125 L 11.140625 -5.078125 L 12.546875 -0.546875 C 11.335938 0.128906 9.957031 0.46875 8.40625 0.46875 C 7.351562 0.46875 6.445312 0.285156 5.6875 -0.078125 C 4.925781 -0.453125 4.347656 -0.953125 3.953125 -1.578125 C 3.554688 -2.203125 3.273438 -2.859375 3.109375 -3.546875 C 2.941406 -4.234375 2.859375 -4.96875 2.859375 -5.75 L 2.859375 -12 L 0.515625 -12 L 0.515625 -16.28125 Z M 2.859375 -16.28125 "/></g></g></g><g fill="#ffffff" fill-opacity="1"><g transform="translate(245.089384, 256.796292)"><g><path d="M 3.4375 -1.9375 C 1.632812 -3.539062 0.734375 -5.601562 0.734375 -8.125 C 0.734375 -10.644531 1.671875 -12.710938 3.546875 -14.328125 C 5.429688 -15.953125 7.765625 -16.765625 10.546875 -16.765625 C 13.273438 -16.765625 15.570312 -15.945312 17.4375 -14.3125 C 19.3125 -12.6875 20.25 -10.625 20.25 -8.125 C 20.25 -5.625 19.332031 -3.566406 17.5 -1.953125 C 15.675781 -0.335938 13.359375 0.46875 10.546875 0.46875 C 7.617188 0.46875 5.25 -0.332031 3.4375 -1.9375 Z M 7.796875 -10.890625 C 7.066406 -10.171875 6.703125 -9.25 6.703125 -8.125 C 6.703125 -7 7.050781 -6.082031 7.75 -5.375 C 8.445312 -4.664062 9.367188 -4.3125 10.515625 -4.3125 C 11.609375 -4.3125 12.507812 -4.671875 13.21875 -5.390625 C 13.925781 -6.117188 14.28125 -7.03125 14.28125 -8.125 C 14.28125 -9.25 13.914062 -10.171875 13.1875 -10.890625 C 12.457031 -11.609375 11.566406 -11.96875 10.515625 -11.96875 C 9.429688 -11.96875 8.523438 -11.609375 7.796875 -10.890625 Z M 7.796875 -10.890625 "/></g></g></g><g fill="#ffffff" fill-opacity="1"><g transform="translate(266.073544, 256.796292)"><g><path d="M 1.90625 0 L 1.90625 -16.28125 L 7.53125 -16.28125 L 7.53125 -13.9375 L 7.59375 -13.9375 C 7.632812 -14.019531 7.703125 -14.125 7.796875 -14.25 C 7.890625 -14.382812 8.09375 -14.609375 8.40625 -14.921875 C 8.726562 -15.242188 9.066406 -15.53125 9.421875 -15.78125 C 9.785156 -16.03125 10.253906 -16.253906 10.828125 -16.453125 C 11.398438 -16.660156 11.984375 -16.765625 12.578125 -16.765625 C 13.191406 -16.765625 13.789062 -16.675781 14.375 -16.5 C 14.96875 -16.332031 15.40625 -16.164062 15.6875 -16 L 16.125 -15.75 L 13.78125 -10.984375 C 13.082031 -11.578125 12.109375 -11.875 10.859375 -11.875 C 10.179688 -11.875 9.597656 -11.722656 9.109375 -11.421875 C 8.617188 -11.128906 8.273438 -10.769531 8.078125 -10.34375 C 7.878906 -9.925781 7.738281 -9.566406 7.65625 -9.265625 C 7.570312 -8.972656 7.53125 -8.742188 7.53125 -8.578125 L 7.53125 0 Z M 1.90625 0 "/></g></g></g></svg>